<?xml version="1.0" encoding="UTF-8" standalone="no"?>
<svg width="501px" height="383px" viewBox="0 0 501 383" version="1.1" xmlns="http://www.w3.org/2000/svg" xmlns:xlink="http://www.w3.org/1999/xlink" xmlns:sketch="http://www.bohemiancoding.com/sketch/ns">
    <!-- Generator: Sketch 3.3.1 (12005) - http://www.bohemiancoding.com/sketch -->
    <title>checked21</title>
    <desc>Created with Sketch.</desc>
    <defs></defs>
    <g id="Elements" stroke="none" stroke-width="1" fill="none" fill-rule="evenodd" sketch:type="MSPage">
        <g id="goalcomplete" sketch:type="MSArtboardGroup" transform="translate(-11.000000, -68.000000)" fill="#9CCC64">
            <g id="checked21" sketch:type="MSLayerGroup" transform="translate(11.086406, 67.000000)">
                <path d="M495.210386,60.7877949 L439.464767,6.0315632 C432.867097,-0.448869925 422.169051,-0.448869925 415.571381,6.0315632 L183.353129,234.125787 L84.5854531,137.115523 C77.9901899,130.63509 67.2909401,130.63509 60.6944735,137.115523 L4.94885437,191.871755 C-1.64881578,198.351006 -1.64881578,208.858954 4.94885437,215.339387 L171.408241,378.839698 C174.707076,382.081097 179.031306,383.700614 183.354332,383.700614 C187.678562,383.700614 192.002792,382.081097 195.300424,378.839698 L495.210386,84.2542448 C498.379242,81.1428803 500.158037,76.9214964 500.158037,72.5216109 C500.159241,68.1193612 498.379242,63.9003415 495.210386,60.7877949 L495.210386,60.7877949 Z" id="Shape" sketch:type="MSShapeGroup"></path>
            </g>
        </g>
    </g>
</svg>