<?xml version="1.0" encoding="UTF-8" standalone="no"?>
<svg width="148px" height="28px" viewBox="0 0 148 28" version="1.1" xmlns="http://www.w3.org/2000/svg" xmlns:xlink="http://www.w3.org/1999/xlink" xmlns:sketch="http://www.bohemiancoding.com/sketch/ns">
    <!-- Generator: Sketch 3.3.1 (12005) - http://www.bohemiancoding.com/sketch -->
    <title>itcounts + itcounts copy + itcounts copy 2</title>
    <desc>Created with Sketch.</desc>
    <defs></defs>
    <g id="Elements" stroke="none" stroke-width="1" fill="none" fill-rule="evenodd" sketch:type="MSPage">
        <g id="itcounts-+-itcounts-copy-+-itcounts-copy-2" sketch:type="MSLayerGroup">
            <path d="M36.614,22.982 C38.414009,22.982 40.0339928,22.082009 41.474,20.282 L44.678,23.882 C42.1819875,26.474013 39.4820145,27.77 36.578,27.77 C33.6739855,27.77 31.22001,26.8520092 29.216,25.016 C27.21199,23.1799908 26.21,20.7800148 26.21,17.816 C26.21,14.8519852 27.2239899,12.4400093 29.252,10.58 C31.2800101,8.7199907 33.6859861,7.79 36.47,7.79 C37.862007,7.79 39.2719929,8.07799712 40.7,8.654 C42.1280071,9.23000288 43.3819946,10.0819944 44.462,11.21 L41.654,14.882 C41.0299969,14.1379963 40.2680045,13.562002 39.368,13.154 C38.4679955,12.745998 37.5740044,12.542 36.686,12.542 C35.2699929,12.542 34.0520051,13.0039954 33.032,13.928 C32.0119949,14.8520046 31.502,16.1359918 31.502,17.78 C31.502,19.4240082 32.0119949,20.7019954 33.032,21.614 C34.0520051,22.5260046 35.2459932,22.982 36.614,22.982 L36.614,22.982 Z M145.388,26.042 C143.983993,27.1940058 142.202011,27.77 140.042,27.77 C138.601993,27.77 137.102008,27.5120026 135.542,26.996 C133.981992,26.4799974 132.578006,25.718005 131.33,24.71 L133.706,21.326 C135.72201,22.8860078 137.869989,23.666 140.15,23.666 C140.846003,23.666 141.397998,23.5280014 141.806,23.252 C142.214002,22.9759986 142.418,22.6100023 142.418,22.154 C142.418,21.6979977 142.136003,21.2780019 141.572,20.894 C141.007997,20.5099981 140.192005,20.1500017 139.124,19.814 C138.055995,19.4779983 137.240003,19.1900012 136.676,18.95 C136.111997,18.7099988 135.470004,18.3620023 134.75,17.906 C133.285993,16.9939954 132.554,15.6440089 132.554,13.856 C132.554,12.0679911 133.273993,10.6100056 134.714,9.482 C136.154007,8.35399436 138.013989,7.79 140.294,7.79 C142.574011,7.79 144.853989,8.55799232 147.134,10.094 L145.118,13.694 C143.437992,12.5419942 141.764008,11.966 140.096,11.966 C138.427992,11.966 137.594,12.4219954 137.594,13.334 C137.594,13.8380025 137.857997,14.2339986 138.386,14.522 C138.914003,14.8100014 139.789994,15.1459981 141.014,15.53 C142.238006,15.9140019 143.107997,16.207999 143.624,16.412 C144.140003,16.616001 144.757996,16.9339978 145.478,17.366 C146.822007,18.1820041 147.494,19.5439905 147.494,21.452 C147.494,23.3600095 146.792007,24.8899942 145.388,26.042 L145.388,26.042 Z" id="itcounts" fill="#99CA3C" sketch:type="MSShapeGroup"></path>
            <path d="M6.374,27.482 L0.974,27.482 L0.974,8.114 L6.374,8.114 L6.374,27.482 Z M0.506,3.398 C0.506,2.50999556 0.81199694,1.76000306 1.424,1.148 C2.03600306,0.53599694 2.78599556,0.23 3.674,0.23 C4.56200444,0.23 5.31199694,0.53599694 5.924,1.148 C6.53600306,1.76000306 6.842,2.50999556 6.842,3.398 C6.842,4.28600444 6.53600306,5.03599694 5.924,5.648 C5.31199694,6.26000306 4.56200444,6.566 3.674,6.566 C2.78599556,6.566 2.03600306,6.26000306 1.424,5.648 C0.81199694,5.03599694 0.506,4.28600444 0.506,3.398 L0.506,3.398 Z M17.93,12.002 L17.93,20.678 C17.93,21.4220037 18.1219981,22.0039979 18.506,22.424 C18.8900019,22.8440021 19.3459974,23.054 19.874,23.054 C20.882005,23.054 21.7339965,22.5980046 22.43,21.686 L24.446,25.466 C22.7659916,27.0020077 20.9960093,27.77 19.136,27.77 C17.2759907,27.77 15.7040064,27.1580061 14.42,25.934 C13.1359936,24.7099939 12.494,23.0420106 12.494,20.93 L12.494,12.002 L10.226,12.002 L10.226,8.114 L12.494,8.114 L12.494,2.318 L17.93,2.318 L17.93,8.114 L22.61,8.114 L22.61,12.002 L17.93,12.002 Z" id="itcounts-copy" fill="#FE8457" sketch:type="MSShapeGroup"></path>
            <path d="M53.286,21.404 C54.1860045,22.400005 55.337993,22.898 56.742,22.898 C58.146007,22.898 59.2979955,22.400005 60.198,21.404 C61.0980045,20.407995 61.548,19.1180079 61.548,17.534 C61.548,15.9499921 61.0980045,14.654005 60.198,13.646 C59.2979955,12.637995 58.146007,12.134 56.742,12.134 C55.337993,12.134 54.1860045,12.637995 53.286,13.646 C52.3859955,14.654005 51.936,15.9499921 51.936,17.534 C51.936,19.1180079 52.3859955,20.407995 53.286,21.404 L53.286,21.404 Z M64.068,24.626 C62.1239903,26.5460096 59.6820147,27.506 56.742,27.506 C53.8019853,27.506 51.3600097,26.5460096 49.416,24.626 C47.4719903,22.7059904 46.5,20.342014 46.5,17.534 C46.5,14.725986 47.4719903,12.3560097 49.416,10.424 C51.3600097,8.49199034 53.8019853,7.526 56.742,7.526 C59.6820147,7.526 62.1239903,8.49199034 64.068,10.424 C66.0120097,12.3560097 66.984,14.725986 66.984,17.534 C66.984,20.342014 66.0120097,22.7059904 64.068,24.626 L64.068,24.626 Z M83.472,18.29 L83.472,7.85 L88.908,7.85 L88.908,27.218 L83.472,27.218 L83.472,24.662 C82.1279933,26.5580095 80.3940106,27.506 78.27,27.506 C76.1459894,27.506 74.3640072,26.8400067 72.924,25.508 C71.4839928,24.1759933 70.764,22.2020131 70.764,19.586 L70.764,7.85 L76.2,7.85 L76.2,18.398 C76.2,21.3740149 77.2919891,22.862 79.476,22.862 C80.5560054,22.862 81.491996,22.4720039 82.284,21.692 C83.076004,20.9119961 83.472,19.7780074 83.472,18.29 L83.472,18.29 Z M99.42,16.418 L99.42,27.218 L94.02,27.218 L94.02,7.85 L99.42,7.85 L99.42,10.01 C101.052008,8.35399172 102.88799,7.526 104.928,7.526 C106.96801,7.526 108.677993,8.2459928 110.058,9.686 C111.438007,11.1260072 112.128,13.045988 112.128,15.446 L112.128,27.218 L106.728,27.218 L106.728,16.274 C106.728,13.2979851 105.636011,11.81 103.452,11.81 C102.371995,11.81 101.430004,12.1999961 100.626,12.98 C99.821996,13.7600039 99.42,14.9059924 99.42,16.418 L99.42,16.418 Z M123.18,11.738 L123.18,20.414 C123.18,21.1580037 123.371998,21.7399979 123.756,22.16 C124.140002,22.5800021 124.595997,22.79 125.124,22.79 C126.132005,22.79 126.983997,22.3340046 127.68,21.422 L129.696,25.202 C128.015992,26.7380077 126.246009,27.506 124.386,27.506 C122.525991,27.506 120.954006,26.8940061 119.67,25.67 C118.385994,24.4459939 117.744,22.7780106 117.744,20.666 L117.744,11.738 L115.476,11.738 L115.476,7.85 L117.744,7.85 L117.744,2.054 L123.18,2.054 L123.18,7.85 L127.86,7.85 L127.86,11.738 L123.18,11.738 Z" id="itcounts-copy-2" fill="#14B6CB" sketch:type="MSShapeGroup"></path>
        </g>
    </g>
</svg>