<?xml version="1.0" encoding="UTF-8" standalone="no"?>
<svg width="143px" height="262px" viewBox="0 0 143 262" version="1.1" xmlns="http://www.w3.org/2000/svg" xmlns:xlink="http://www.w3.org/1999/xlink" xmlns:sketch="http://www.bohemiancoding.com/sketch/ns">
    <!-- Generator: Sketch 3.3.1 (12005) - http://www.bohemiancoding.com/sketch -->
    <title>step6 + CO2</title>
    <desc>Created with Sketch.</desc>
    <defs></defs>
    <g id="Elements" stroke="none" stroke-width="1" fill="none" fill-rule="evenodd" sketch:type="MSPage">
        <g id="cat-icons" sketch:type="MSLayerGroup" fill="#F7C03A">
            <g id="step6" transform="translate(0.156250, 0.005282)" sketch:type="MSShapeGroup">
                <path d="M27.4476108,56.9097449 C22.4363573,57.7212111 17.2093081,53.39001 15.7586821,47.2431531 C14.3200447,41.0760096 17.2093081,35.4464624 22.2325503,34.6654261 C27.2557925,33.8336732 32.470853,38.1750177 33.921479,44.3218746 C35.3840937,50.4788748 32.4468757,56.0881353 27.4476108,56.9097449 L27.4476108,56.9097449 Z M17.2572627,60.2266132 C17.3891378,55.1346624 14.140215,50.9353246 9.99214392,50.8541779 C5.83208415,50.7831746 2.36736579,54.8202193 2.2354907,59.9324567 C2.09162696,65.0041207 5.32856107,69.2034586 9.48862083,69.2744619 C13.6127147,69.3657519 17.1014103,65.3185639 17.2572627,60.2266132 L17.2572627,60.2266132 Z M58.3183713,35.0610159 C58.3063826,27.1796499 53.2231972,20.7893532 46.953136,20.7994965 C40.6710861,20.7893532 35.5639234,27.1897933 35.5639234,35.0711593 C35.5639234,42.9322386 40.6471088,49.3326787 46.9411473,49.342822 C53.2112086,49.3326787 58.3183713,42.9322386 58.3183713,35.0610159 L58.3183713,35.0610159 Z M0.0715889323,116.126495 C-1.93178181,162.704658 38.7772355,176.996607 38.7772355,224.73111 C38.7772355,242.268924 53.8876266,261.683254 80.1016673,261.683254 C118.571623,261.683254 127.829029,245.484359 128.614665,227.114792 C130.094278,192.931776 88.2853713,189.046881 88.2853713,158.93134 C88.2853713,121.248876 141.891906,121.522745 141.891906,87.2991561 C141.891906,63.6753448 115.298142,60.9772195 101.169795,60.9772195 C74.7593453,60.9873628 2.0880536,69.5584751 0.0715889323,116.126495 L0.0715889323,116.126495 Z M141.375703,27.05793 C143.845364,13.6281635 137.215643,1.55760296 126.569726,0.137537011 C115.92381,-1.28252893 105.289882,8.45506612 102.808232,21.894976 C100.35056,35.3145992 106.968292,47.3851597 117.626197,48.8052256 C128.284103,50.2354349 138.894053,40.4978399 141.375703,27.05793 L141.375703,27.05793 Z M93.469078,29.2387456 C94.5360674,19.7547337 89.1891318,11.5690679 81.4444672,10.9300382 C73.6998026,10.2910085 66.5425817,17.4724849 65.451615,26.9666401 C64.3486596,36.4607952 69.7195725,44.6363178 77.4642371,45.2753474 C85.196913,45.8940904 92.354134,38.7227574 93.469078,29.2387456 L93.469078,29.2387456 Z" id="Shape"></path>
            </g>
        </g>
    </g>
</svg>