<?xml version="1.0" encoding="UTF-8" standalone="no"?>
<svg width="244px" height="240px" viewBox="0 0 244 240" version="1.1" xmlns="http://www.w3.org/2000/svg" xmlns:xlink="http://www.w3.org/1999/xlink" xmlns:sketch="http://www.bohemiancoding.com/sketch/ns">
    <!-- Generator: Sketch 3.3.1 (12005) - http://www.bohemiancoding.com/sketch -->
    <title>leaf64</title>
    <desc>Created with Sketch.</desc>
    <defs></defs>
    <g id="Elements" stroke="none" stroke-width="1" fill="none" fill-rule="evenodd" sketch:type="MSPage">
        <g id="goalcomplete" sketch:type="MSArtboardGroup" transform="translate(-134.000000, -136.000000)" fill="#F7C03A">
            <g id="leaf64" sketch:type="MSLayerGroup" transform="translate(85.716154, 136.722590)">
                <g id="Group" transform="translate(48.676685, 0.000000)" sketch:type="MSShapeGroup">
                    <path d="M217.645421,149.032341 C203.868171,149.879171 185.743737,163.605467 168.258078,171.498622 C146.840244,181.157411 113.484078,173.388103 113.480826,173.388103 C118.618999,170.987023 139.525552,166.022109 143.739387,164.166994 C166.12254,154.361015 164.234835,133.893797 153.574054,134.066275 C139.479368,134.302298 131.221474,137.748624 103.117316,141.567788 C81.8165688,144.453883 56.6246269,143.398912 44.5392858,147.99747 C27.480995,154.494588 0,198.19192 0,198.19192 L42.4837565,239.217783 C42.4837565,239.217783 68.7789192,213.407625 81.5726374,213.407625 C110.726027,213.407625 111.909257,213.00885 138.988253,211.551213 C150.49076,210.937813 152.902104,210.466415 159.486953,208.241704 C194.577309,196.424989 232.259844,164.926288 232.95326,161.136303 C234.564508,152.363897 224.936695,148.581044 217.645421,149.032341 L217.645421,149.032341 Z" id="Shape"></path>
                    <path d="M159.019255,85.5369551 C159.749749,85.6854421 160.493252,85.3638283 160.888095,84.7342174 C170.647956,69.0568407 185.385321,50.0920002 204.602568,37.2034562 C186.691492,54.3494928 174.043483,72.3981229 166.376228,89.3885399 C166.145957,89.8988424 166.171976,90.4850096 166.442578,90.9745629 C166.715781,91.4634677 167.202343,91.796753 167.758507,91.873266 C169.010038,92.0425023 170.309705,92.1300383 171.618478,92.1300383 C183.89246,92.1300383 196.118306,84.6745632 204.210976,78.4212494 C213.453703,71.2802555 222.329556,61.8445212 227.956242,53.1752133 C236.396271,40.1725483 241.673647,24.1476212 242.817198,8.04877479 C242.854276,7.53652697 242.666286,7.03400539 242.301364,6.66894777 C241.935792,6.3058354 241.429716,6.1152014 240.916484,6.15475471 C228.688036,7.01779501 198.345563,10.9296824 180.601662,28.5827794 C179.98175,29.1404163 173.44894,35.1324189 167.37342,44.7101561 C159.046575,57.8431525 155.671214,71.4507887 157.617462,84.0669984 C157.728695,84.8023009 158.287461,85.388468 159.019255,85.5369551 L159.019255,85.5369551 Z" id="Shape"></path>
                    <path d="M110.491202,104.338395 C118.205291,110.298625 129.856759,117.402659 141.555062,117.402659 C142.80269,117.402659 144.041212,117.321608 145.231598,117.15691 C145.762392,117.084288 146.226838,116.767213 146.485731,116.302299 C146.744623,115.836737 146.768041,115.277155 146.550779,114.790844 C139.244543,98.5986258 127.189775,81.397474 110.117824,65.0561204 C128.4335,77.3403417 142.48005,95.4155568 151.78067,110.355686 C152.155999,110.956118 152.867628,111.260873 153.562345,111.119519 C154.257062,110.976219 154.79241,110.41923 154.900391,109.719591 C156.751668,97.6973291 153.537627,84.7270848 145.600422,72.2126762 C139.811115,63.0829937 133.58143,57.3756453 132.992092,56.8419998 C116.083412,40.0195224 87.1648478,36.2898396 75.510127,35.4682978 C75.0216136,35.4300413 74.538304,35.6109491 74.1915961,35.9578511 C73.8442377,36.3041047 73.6640536,36.7852286 73.6991798,37.273485 C74.7893908,52.6156312 79.8182822,67.8877485 87.8615161,80.2783098 C93.2241057,88.5410615 101.6843,97.5332801 110.491202,104.338395 L110.491202,104.338395 Z" id="Shape"></path>
                    <path d="M127.161804,46.1139745 C132.300627,50.082274 140.060901,54.8150547 147.852397,54.8150547 C148.682415,54.8150547 149.508529,54.7586426 150.30277,54.6503573 C150.657284,54.6023746 150.965613,54.3916397 151.137341,54.0823458 C151.31037,53.7698098 151.326632,53.3989164 151.179623,53.0734121 C146.313352,42.2870294 138.286381,30.8321309 126.915271,19.948486 C139.113146,28.128889 148.468406,40.1699546 154.664916,50.1192336 C154.914051,50.5180088 155.388904,50.7235564 155.851398,50.6282394 C156.313892,50.5335708 156.669707,50.1626774 156.741911,49.6958187 C157.974578,41.687894 155.834486,33.04971 150.548653,24.7136874 C146.692584,18.6347973 142.543147,14.8318436 142.151556,14.4771606 C130.887776,3.27190184 111.627597,0.78847258 103.865372,0.240561947 C103.538179,0.215273764 103.21749,0.337175774 102.985268,0.567363082 C102.754346,0.79755039 102.634657,1.11851579 102.658074,1.44337168 C103.383364,11.6630397 106.733356,21.8347251 112.090742,30.0871021 C115.661899,35.5908482 121.297691,41.5796087 127.161804,46.1139745 L127.161804,46.1139745 Z" id="Shape"></path>
                </g>
            </g>
        </g>
    </g>
</svg>