<?xml version="1.0" encoding="UTF-8" standalone="no"?>
<svg width="191px" height="277px" viewBox="0 0 191 277" version="1.1" xmlns="http://www.w3.org/2000/svg" xmlns:xlink="http://www.w3.org/1999/xlink" xmlns:sketch="http://www.bohemiancoding.com/sketch/ns">
    <!-- Generator: Sketch 3.3.1 (12005) - http://www.bohemiancoding.com/sketch -->
    <title>water64 copy</title>
    <desc>Created with Sketch.</desc>
    <defs></defs>
    <g id="Elements" stroke="none" stroke-width="1" fill="none" fill-rule="evenodd" sketch:type="MSPage">
        <g id="water64-copy" sketch:type="MSLayerGroup" transform="translate(0.500000, 0.000000)" fill="#FFFFFF">
            <path d="M158.720823,111.376787 C131.595647,76.2575398 105.848252,52.5406458 103.550195,6.01904597 C103.550195,4.65076363 103.090434,3.7385754 102.170911,2.82638717 C101.711149,0.545916587 99.4123419,-0.82236576 97.1135344,0.545916587 C94.3549655,0.545916587 92.0569092,2.37029305 92.0569092,5.56295186 C34.1269609,67.5917516 -63.8022374,224.944221 59.4138431,270.096794 C115.044984,290.621774 178.032309,262.800033 189.066585,202.594865 C195.042733,170.212928 178.030806,136.006614 158.720823,111.376787 L158.720823,111.376787 Z M59.8728534,240.907516 C46.53977,233.153916 38.2640631,217.647461 34.1262097,203.963892 C32.2871637,197.12248 31.3676407,190.281814 31.8274022,183.440402 C34.5859712,171.581955 38.2640631,160.178857 42.4019166,148.777249 C44.700724,158.810575 49.298339,168.845391 55.7349999,176.142151 C70.4473677,192.106936 100.331865,201.684167 108.607572,221.752308 C113.664948,234.066104 93.895204,244.557014 85.6194971,247.292833 C76.8840287,250.029398 67.228286,245.469202 59.8728534,240.907516 L59.8728534,240.907516 Z" id="Shape" sketch:type="MSShapeGroup"></path>
        </g>
    </g>
</svg>